<?xml version="1.0" encoding="UTF-8" standalone="no"?>
<!-- Created with Inkscape (http://www.inkscape.org/) -->

<svg
   width="172.35976"
   height="25"
   viewBox="0 0 45.603519 6.6145833"
   version="1.1"
   id="svg8"
   inkscape:version="1.3.2 (091e20e, 2023-11-25, custom)"
   sodipodi:docname="modprod_logo.svg"
   xmlns:inkscape="http://www.inkscape.org/namespaces/inkscape"
   xmlns:sodipodi="http://sodipodi.sourceforge.net/DTD/sodipodi-0.dtd"
   xmlns="http://www.w3.org/2000/svg"
   xmlns:svg="http://www.w3.org/2000/svg"
   xmlns:rdf="http://www.w3.org/1999/02/22-rdf-syntax-ns#"
   xmlns:cc="http://creativecommons.org/ns#"
   xmlns:dc="http://purl.org/dc/elements/1.1/">
  <defs
     id="defs2" />
  <sodipodi:namedview
     id="base"
     pagecolor="#ffffff"
     bordercolor="#666666"
     borderopacity="1.0"
     inkscape:pageopacity="0.0"
     inkscape:pageshadow="2"
     inkscape:zoom="0.70710678"
     inkscape:cx="277.18586"
     inkscape:cy="221.32442"
     inkscape:document-units="mm"
     inkscape:current-layer="layer1"
     showgrid="false"
     inkscape:window-width="2560"
     inkscape:window-height="1369"
     inkscape:window-x="-8"
     inkscape:window-y="-8"
     inkscape:window-maximized="1"
     inkscape:snap-midpoints="false"
     inkscape:snap-intersection-paths="true"
     inkscape:object-paths="true"
     fit-margin-top="0"
     fit-margin-left="0"
     fit-margin-right="0"
     fit-margin-bottom="0"
     inkscape:showpageshadow="2"
     inkscape:pagecheckerboard="0"
     inkscape:deskcolor="#d1d1d1" />
  <metadata
     id="metadata5">
    <rdf:RDF>
      <cc:Work
         rdf:about="">
        <dc:format>image/svg+xml</dc:format>
        <dc:type
           rdf:resource="http://purl.org/dc/dcmitype/StillImage" />
      </cc:Work>
    </rdf:RDF>
  </metadata>
  <g
     inkscape:label="Layer 1"
     inkscape:groupmode="layer"
     id="layer1"
     transform="translate(-17.1974,-103.589)">
    <g
       id="g1"
       transform="matrix(0.26410783,0,0,0.26410783,12.655432,76.230334)"
       style="stroke-width:3.78633">
      <path
         style="font-style:normal;font-variant:normal;font-weight:bold;font-stretch:normal;font-size:33.8335px;line-height:125%;font-family:arial;-inkscape-font-specification:'arial Bold';letter-spacing:0px;word-spacing:0px;fill:#000099;fill-opacity:1;stroke:none;stroke-width:0.960789px;stroke-linecap:butt;stroke-linejoin:miter;stroke-opacity:1"
         d="m 154.00197,103.58903 c -1.97143,0 -3.71151,0.3193 -5.22036,0.95808 -1.13439,0.47358 -2.18064,1.20053 -3.13882,2.18074 -0.94716,0.9802 -1.69622,2.08721 -2.24689,3.32073 -0.73791,1.67405 -1.10691,3.74448 -1.10691,6.2115 0,3.85474 1.06283,6.88357 3.18843,9.08627 2.12561,2.19169 4.98927,3.28766 8.59069,3.28766 2.28194,0 4.26766,-0.45563 5.96036,-1.36219 0.42049,-0.31026 0.57285,-0.8709 0.33022,-1.35444 l -1.42679,-2.2748 c -0.31107,-0.42437 -0.88822,-0.4848 -1.32653,-0.2036 l 0.0181,-0.0145 c -1.01851,0.68489 -2.20824,1.02992 -3.57187,1.02992 -1.9494,0 -3.55744,-0.70487 -4.824,-2.1146 -1.26655,-1.42075 -1.89962,-3.50274 -1.89962,-6.2451 0,-2.78642 0.6165,-4.86789 1.85001,-6.24458 1.23352,-1.3877 2.85813,-2.08153 4.87361,-2.08153 2.01547,0 3.62904,0.68278 4.84053,2.04846 0.9677,1.08103 1.55047,2.60606 1.75183,4.57078 h -3.00033 l 5.32422,9.22114 5.3237,-9.22114 h -2.5895 c -0.27967,-3.11081 -1.32533,-5.60508 -3.14244,-7.4781 -2.13663,-2.21371 -4.98924,-3.32073 -8.55762,-3.32073 z"
         id="path4510"
         inkscape:connector-curvature="0" />
      <path
         style="font-style:normal;font-variant:normal;font-weight:bold;font-stretch:normal;font-size:33.8335px;line-height:125%;font-family:arial;-inkscape-font-specification:'arial Bold';letter-spacing:0px;word-spacing:0px;fill:#000000;fill-opacity:1;stroke:none;stroke-width:0.960789px;stroke-linecap:butt;stroke-linejoin:miter;stroke-opacity:1"
         d="m 18.197339,104.00192 a 1.0752835,1.1121357 0 0 0 -0.999939,0.99994 v 22.2188 a 1.1121355,1.0752835 0 0 0 0.999939,0.99994 h 2.543514 a 1.0752835,1.1121357 0 0 0 0.999939,-0.99994 v -18.06402 l 4.539774,18.06402 c 0.184524,0.49282 0.709622,0.94803 1.251086,0.99994 h 2.708363 c 0.541464,-0.0519 1.066561,-0.50712 1.251085,-0.99994 l -0.251146,0.99994 4.807458,-19.06396 v 18.06402 a 1.1121358,1.0752836 0 0 0 0.999937,0.99994 h 2.542998 a 1.0752836,1.1121358 0 0 0 0.99994,-0.99994 v -22.2188 a 1.1121358,1.0752836 0 0 0 -0.99994,-0.99994 h -5.335074 c -0.524973,0.0354 -1.079352,0.48843 -1.262973,1.00046 l -4.08192,15.51998 -4.394564,-16.52044 0.263033,1.00046 c -0.18362,-0.51203 -0.737998,-0.96502 -1.262972,-1.00046 z"
         id="path4500"
         inkscape:connector-curvature="0" />
      <path
         inkscape:connector-curvature="0"
         id="path4502"
         style="font-style:normal;font-variant:normal;font-weight:bold;font-stretch:normal;font-size:33.8335px;line-height:125%;font-family:arial;-inkscape-font-specification:'arial Bold';letter-spacing:0px;word-spacing:0px;fill:#000000;fill-opacity:1;stroke:none;stroke-width:0.960786px;stroke-linecap:butt;stroke-linejoin:miter;stroke-opacity:1"
         d="m 44.489022,116.26011 q 0,-3.70054 1.106859,-6.21162 0.826014,-1.85028 2.246758,-3.32058 1.437264,-1.47031 3.138853,-2.18068 2.263278,-0.95817 5.220409,-0.95817 5.35257,0 8.557505,3.32057 3.221454,3.32058 3.221454,9.23484 0,5.8647 -3.188414,9.18528 -3.188414,3.30405 -8.524464,3.30405 -5.402132,0 -8.590546,-3.28753 -3.188414,-3.30406 -3.188414,-9.08616 z m 5.038685,-0.1652 q 0,4.11355 1.899833,6.24466 1.899832,2.1146 4.823921,2.1146 2.92409,0 4.790882,-2.09807 1.883312,-2.1146 1.883312,-6.32727 0,-4.16311 -1.833751,-6.21163 -1.817231,-2.04851 -4.840443,-2.04851 -3.023211,0 -4.873482,2.08155 -1.850272,2.06504 -1.850272,6.24467 z" />
      <path
         style="font-style:normal;font-variant:normal;font-weight:bold;font-stretch:normal;font-size:33.8335px;line-height:125%;font-family:arial;-inkscape-font-specification:'arial Bold';letter-spacing:0px;word-spacing:0px;fill:#000000;fill-opacity:1;stroke:none;stroke-width:0.960789px;stroke-linecap:butt;stroke-linejoin:miter;stroke-opacity:1"
         d="m 72.764033,104.00192 a 1.0752837,1.1121359 0 0 0 -0.999938,0.99994 v 22.2188 a 1.1121359,1.0752837 0 0 0 0.999938,0.99994 H 80.9656 c 1.806218,0 3.249094,-0.1707 4.328416,-0.51212 1.442773,-0.46257 2.588443,-1.10668 3.436486,-1.9327 1.123375,-1.09033 1.987893,-2.51664 2.593638,-4.27881 0.495607,-1.44277 0.743107,-3.16076 0.743107,-5.1542 0,-2.26878 -0.264068,-4.17404 -0.792716,-5.71593 -0.528651,-1.55291 -1.299792,-2.86375 -2.313038,-3.93206 -1.013243,-1.06832 -2.230194,-1.81184 -3.65094,-2.23036 -1.057296,-0.30838 -2.593546,-0.4625 -4.60902,-0.4625 z m 3.890203,4.09742 H 78.851 c 1.993447,0 3.331903,0.0768 4.014742,0.231 0.914122,0.19824 1.668182,0.57829 2.26291,1.13998 0.59473,0.56168 1.057624,1.34336 1.388031,2.34559 0.330403,1.00223 0.495575,2.43958 0.495575,4.31188 0,1.8723 -0.165172,3.35384 -0.495575,4.44418 -0.330407,1.07932 -0.760162,1.85547 -1.288812,2.32905 -0.517634,0.47359 -1.172798,0.80997 -1.96577,1.00821 -0.605745,0.1542 -1.591249,0.231 -2.956928,0.231 h -3.650937 z"
         id="path4504"
         inkscape:connector-curvature="0" />
      <path
         style="font-style:normal;font-variant:normal;font-weight:bold;font-stretch:normal;font-size:33.8335px;line-height:125%;font-family:arial;-inkscape-font-specification:'arial Bold';letter-spacing:0px;word-spacing:0px;fill:#000099;fill-opacity:1;stroke:none;stroke-width:0.960789px;stroke-linecap:butt;stroke-linejoin:miter;stroke-opacity:1"
         d="m 97.230757,104.00192 a 1.0752836,1.1121358 0 0 0 -1.000456,0.99994 v 22.2188 a 1.1121359,1.0752837 0 0 0 0.99994,0.99994 h 2.890259 a 1.0752837,1.1121359 0 0 0 0.99994,-0.99994 v -8.13542 h 3.18844 c 2.21372,0 3.90461,-0.11598 5.07204,-0.34727 0.85905,-0.18723 1.70148,-0.56676 2.52749,-1.13946 0.83703,-0.58372 1.52534,-1.38248 2.06499,-2.39572 0.53967,-1.01324 0.80926,-2.26334 0.80926,-3.75016 0,-1.92737 -0.4679,-3.49675 -1.40405,-4.70824 -0.93615,-1.2225 -2.09787,-2.01522 -3.48558,-2.37867 -0.90311,-0.24229 -2.8415,-0.3638 -5.81515,-0.3638 z m 3.889683,4.09742 h 2.36265 c 1.76216,0 2.93493,0.0547 3.51865,0.16485 0.79297,0.14318 1.44813,0.50114 1.96577,1.07384 0.51763,0.5727 0.77669,1.29966 0.77669,2.18074 0,0.71588 -0.18726,1.34343 -0.56172,1.88309 -0.36344,0.53967 -0.87001,0.93629 -1.5198,1.18959 -0.6498,0.25332 -1.93855,0.37983 -3.86592,0.37983 h -2.67632 z"
         id="path4506"
         inkscape:connector-curvature="0" />
      <path
         style="font-style:normal;font-variant:normal;font-weight:bold;font-stretch:normal;font-size:33.8335px;line-height:125%;font-family:arial;-inkscape-font-specification:'arial Bold';letter-spacing:0px;word-spacing:0px;fill:#000099;fill-opacity:1;stroke:none;stroke-width:0.960789px;stroke-linecap:butt;stroke-linejoin:miter;stroke-opacity:1"
         d="m 119.84695,104.00192 a 1.0752836,1.1121358 0 0 0 -0.99994,0.99994 v 22.2188 a 1.1121358,1.0752836 0 0 0 0.99994,0.99994 h 2.88974 a 1.0752836,1.1121358 0 0 0 0.99994,-0.99994 v -9.11004 h 0.99116 c 1.12338,0 1.94423,0.0934 2.46186,0.2806 0.51764,0.17621 1.00763,0.51209 1.4702,1.00769 0.46256,0.4846 1.32156,1.66841 2.5771,3.55172 l 2.86442,4.27003 c 0.41991,0.52084 1.12924,0.94803 1.6707,0.99994 h 3.84835 c 0.52497,-0.0354 0.66123,-0.43368 0.37413,-0.99994 l -2.33112,-3.72484 c -1.16743,-1.88331 -2.09822,-3.19364 -2.79208,-3.93154 -0.68283,-0.73791 -1.55287,-1.41516 -2.61017,-2.03192 2.1256,-0.30837 3.72261,-1.05191 4.79092,-2.23036 1.06831,-1.18946 1.60248,-2.69308 1.60248,-4.51032 0,-1.43175 -0.35243,-2.70342 -1.0573,-3.81578 -0.70486,-1.11236 -1.6467,-1.88351 -2.82515,-2.31304 -1.16743,-0.44054 -3.04507,-0.66094 -5.63325,-0.66094 z m 3.88968,4.09742 h 3.81631 c 1.98243,0 3.17177,0.0271 3.56825,0.0822 0.79298,0.13217 1.40447,0.45198 1.834,0.9586 0.44054,0.4956 0.66094,1.15077 0.66094,1.96577 0,0.72689 -0.16517,1.33234 -0.49558,1.81694 -0.33039,0.4846 -0.78777,0.82599 -1.37149,1.02423 -0.58371,0.19824 -2.04868,0.29766 -4.39456,0.29766 h -3.61787 z"
         id="path4508"
         inkscape:connector-curvature="0" />
      <path
         style="font-style:normal;font-variant:normal;font-weight:bold;font-stretch:normal;font-size:33.8335px;line-height:125%;font-family:arial;-inkscape-font-specification:'arial Bold';letter-spacing:0px;word-spacing:0px;fill:#000099;fill-opacity:1;stroke:none;stroke-width:0.960789px;stroke-linecap:butt;stroke-linejoin:miter;stroke-opacity:1"
         d="m 170.56426,104.00192 a 1.0752837,1.1121359 0 0 0 -0.99993,0.99994 v 22.2188 a 1.1121359,1.0752837 0 0 0 0.99993,0.99994 h 8.20157 c 1.80622,0 3.24909,-0.1707 4.32842,-0.51212 1.44276,-0.46257 2.58792,-1.10668 3.43596,-1.9327 1.12338,-1.09033 1.9879,-2.51664 2.59364,-4.27881 0.49561,-1.44277 0.74363,-3.16076 0.74363,-5.1542 0,-2.26878 -0.26407,-4.17404 -0.79272,-5.71593 -0.52865,-1.55291 -1.2998,-2.86375 -2.31304,-3.93206 -1.01324,-1.06832 -2.2302,-1.81184 -3.65093,-2.23036 -1.05731,-0.30838 -2.59355,-0.4625 -4.60903,-0.4625 z m 3.88969,4.09742 h 2.19728 c 1.99345,0 3.33139,0.0768 4.01423,0.231 0.91412,0.19824 1.6687,0.57829 2.26342,1.13998 0.59474,0.56168 1.05763,1.34336 1.38803,2.34559 0.3304,1.00223 0.49558,2.43958 0.49558,4.31188 0,1.8723 -0.16518,3.35384 -0.49558,4.44418 -0.3304,1.07932 -0.76015,1.85547 -1.28881,2.32905 -0.51763,0.47359 -1.1728,0.80997 -1.96577,1.00821 -0.60574,0.1542 -1.59176,0.231 -2.95744,0.231 h -3.65094 z"
         id="path4512"
         inkscape:connector-curvature="0" />
    </g>
  </g>
</svg>
